<svg xmlns="http://www.w3.org/2000/svg" viewBox="0 0 1600 1100" preserveAspectRatio="xMidYMid slice">
  <defs>
    <linearGradient id="sky" x1="0" x2="1" y1="0" y2="1">
      <stop offset="0" stop-color="#0f172a"/>
      <stop offset="0.45" stop-color="#102033"/>
      <stop offset="1" stop-color="#05070b"/>
    </linearGradient>
    <linearGradient id="glass" x1="0" x2="1" y1="0" y2="1">
      <stop offset="0" stop-color="#22d3ee" stop-opacity="0.28"/>
      <stop offset="1" stop-color="#10b981" stop-opacity="0.08"/>
    </linearGradient>
    <linearGradient id="line" x1="0" x2="1" y1="0" y2="0">
      <stop offset="0" stop-color="#67e8f9" stop-opacity="0"/>
      <stop offset="0.2" stop-color="#67e8f9" stop-opacity="0.72"/>
      <stop offset="0.62" stop-color="#34d399" stop-opacity="0.7"/>
      <stop offset="1" stop-color="#fbbf24" stop-opacity="0"/>
    </linearGradient>
    <filter id="blur" x="-20%" y="-20%" width="140%" height="140%">
      <feGaussianBlur stdDeviation="28"/>
    </filter>
  </defs>
  <rect width="1600" height="1100" fill="url(#sky)"/>
  <circle cx="1180" cy="160" r="310" fill="#0891b2" opacity="0.18" filter="url(#blur)"/>
  <circle cx="350" cy="870" r="420" fill="#064e3b" opacity="0.26" filter="url(#blur)"/>
  <circle cx="1450" cy="880" r="380" fill="#1e293b" opacity="0.72" filter="url(#blur)"/>

  <g opacity="0.22">
    <path d="M0 225h1600M0 375h1600M0 525h1600M0 675h1600M0 825h1600" stroke="#94a3b8" stroke-width="1"/>
    <path d="M160 0v1100M320 0v1100M480 0v1100M640 0v1100M800 0v1100M960 0v1100M1120 0v1100M1280 0v1100M1440 0v1100" stroke="#94a3b8" stroke-width="1"/>
  </g>

  <g transform="translate(0 115)" opacity="0.9">
    <path d="M80 650C180 610 245 520 348 545C450 570 492 715 604 690C720 664 738 465 850 442C970 418 1020 595 1148 558C1278 520 1320 345 1520 365" fill="none" stroke="url(#line)" stroke-width="8" stroke-linecap="round" stroke-linejoin="round"/>
    <path d="M80 650C180 610 245 520 348 545C450 570 492 715 604 690C720 664 738 465 850 442C970 418 1020 595 1148 558C1278 520 1320 345 1520 365L1520 820L80 820Z" fill="url(#glass)" opacity="0.35"/>
  </g>

  <g opacity="0.45">
    <rect x="1035" y="255" width="260" height="160" rx="18" fill="#020617" opacity="0.6" stroke="#67e8f9" stroke-opacity="0.25"/>
    <path d="M1074 365h182M1074 330h118M1074 294h156" stroke="#cbd5e1" stroke-opacity="0.52" stroke-width="10" stroke-linecap="round"/>
    <rect x="1135" y="485" width="330" height="210" rx="22" fill="#020617" opacity="0.5" stroke="#34d399" stroke-opacity="0.22"/>
    <path d="M1183 628h220M1183 588h144M1183 548h260" stroke="#cbd5e1" stroke-opacity="0.45" stroke-width="11" stroke-linecap="round"/>
  </g>

  <rect width="1600" height="1100" fill="#020617" opacity="0.12"/>
</svg>
